:FULLY-SPECIFIED
:FORCE-ALL-JOINTS-BE-3DOF
:DEGREES
985
root 1.11934 15.1558 32.4857 5.3198 -4.69517 4.09755
lfemur 8.73553 1.76685 5.17973
ltibia 1.9788e-14 -0 0
lfoot -30.1106 -11.6944 -3.10225e-05
ltoes -33.8887 0 0
rfemur -32.8753 -15.6405 -6.22637
rtibia 50.6935 -0 0
rfoot -22.7229 5.03769 -0.000361322
rtoes -42.1907 0 0
lowerback -1.4961 -0.368616 0.673934
upperback -0.733632 -0.496525 -5.86907
thorax 0.0257867 -0.264839 -6.47611
lowerneck -6.76067 1.17346 5.8212
upperneck 1.15634 0.975626 3.36123
head 1.5145 0.594329 0.10269
lclavicle -1.00781e-14 2.46655e-15 -7.88147e-31
lhumerus -58.2701 -45.0646 114.832
lradius 55.0247 -0 0
lwrist 24.9698 0 0
lhand 37.2531 24.4131 0.000107814
lfingers 7.12502 -0 0
lthumb 60.0817 38.1071 3.97478e-05
rclavicle -1.00781e-14 2.46655e-15 -7.88147e-31
rhumerus 3.78661 -24.856 -0.107063
rradius 27.993 -0 0
rwrist -11.2247 0 0
rhand -31.4773 -44.5886 0.00064767
rfingers 7.12502 -0 0
rthumb -4.74406 -74.5153 0.000622067
986
root 1.12175 15.1566 32.4816 5.29275 -4.66499 4.0924
lfemur 8.73028 1.72946 5.17832
ltibia 1.94075e-14 -0 0
lfoot -30.1135 -11.6732 -1.47234e-05
ltoes -33.9086 0 0
rfemur -32.8246 -15.6115 -6.2361
rtibia 50.6568 -0 0
rfoot -22.7104 4.98123 -0.000171484
rtoes -42.2273 0 0
lowerback -1.49148 -0.363672 0.671602
upperback -0.722205 -0.489385 -5.86008
thorax 0.035981 -0.260797 -6.46509
lowerneck -6.77641 1.17069 5.82325
upperneck 1.18957 0.969071 3.35952
head 1.52792 0.592293 0.101801
lclavicle -1.12375e-14 1.13471e-15 -3.74059e-31
lhumerus -58.267 -45.1046 114.852
lradius 55.0328 -0 0
lwrist 24.9692 0 0
lhand 37.2417 24.3947 5.11692e-05
lfingers 7.12502 -0 0
lthumb 60.0719 38.0992 1.88645e-05
rclavicle -1.12375e-14 1.13471e-15 -3.74059e-31
rhumerus 3.76441 -24.813 -0.145381
rradius 27.9776 -0 0
rwrist -11.1763 0 0
rhand -31.4599 -44.5157 0.000307383
rfingers 7.12502 -0 0
rthumb -4.72726 -74.4428 0.000295232
987
root 1.12327 15.1571 32.479 5.27566 -4.64593 4.08914
lfemur 8.72696 1.70583 5.17743
ltibia 1.91671e-14 -0 0
lfoot -30.1153 -11.6599 -3.87943e-06
ltoes -33.9212 0 0
rfemur -32.7926 -15.5932 -6.24223
rtibia 50.6337 -0 0
rfoot -22.7025 4.94556 -4.51833e-05
rtoes -42.2504 0 0
lowerback -1.48856 -0.360548 0.670128
upperback -0.714986 -0.484876 -5.85441
thorax 0.0424219 -0.258245 -6.45813
lowerneck -6.78636 1.16895 5.82454
upperneck 1.21056 0.96493 3.35844
head 1.53639 0.591006 0.101239
lclavicle -1.197e-14 2.93294e-16 -9.85596e-32
lhumerus -58.265 -45.1299 114.865
lradius 55.038 -0 0
lwrist 24.9688 0 0
lhand 37.2344 24.3831 1.34824e-05
lfingers 7.12502 -0 0
lthumb 60.0658 38.0942 4.97055e-06
rclavicle -1.197e-14 2.93294e-16 -9.85596e-32
rhumerus 3.75037 -24.7859 -0.169591
rradius 27.9678 -0 0
rwrist -11.1458 0 0
rhand -31.4489 -44.4697 8.09901e-05
rfingers 7.12502 -0 0
rthumb -4.71665 -74.397 7.77885e-05
988
root 1.1238 15.1573 32.4781 5.2697 -4.63928 364.088
lfemur 8.7258 1.6976 5.17712
ltibia 1.90833e-14 0 0
lfoot -30.1159 -11.6552 0
ltoes -33.9256 0 0
rfemur -32.7814 -15.5868 -6.24436
rtibia 50.6256 0 0
rfoot -22.6997 4.93313 0
rtoes -42.2585 0 0
lowerback -1.48754 -0.359459 0.669615
upperback -0.712469 -0.483304 -5.85243
thorax 0.0446671 -0.257355 -6.4557
lowerneck -6.78983 1.16834 5.82499
upperneck 1.21788 0.963487 3.35806
head 1.53935 0.590558 0.101043
lclavicle -1.22253e-14 0 0
lhumerus -58.2643 -45.1387 114.869
lradius 55.0398 0 0
lwrist 24.9687 0 0
lhand 37.2319 24.379 0
lfingers 7.12502 0 0
lthumb 60.0636 38.0924 0
rclavicle -1.22253e-14 0 0
rhumerus 3.74548 -24.7764 -0.17803
rradius 27.9644 0 0
rwrist -11.1351 0 0
rhand -31.4451 -44.4536 0
rfingers 7.12502 0 0
rthumb -4.71295 -794.381 0
989
root 1.12393 15.1573 32.4777 5.26731 -4.63285 4.08537
lfemur 8.72366 1.69098 5.17987
ltibia 1.86119e-14 -0 0
lfoot -30.1158 -11.6513 4.09966e-07
ltoes -33.9279 0 0
rfemur -32.7748 -15.5881 -6.24301
rtibia 50.6222 -0 0
rfoot -22.6992 4.92875 -2.98021e-06
rtoes -42.2643 0 0
lowerback -1.48635 -0.358504 0.668085
upperback -0.711585 -0.481982 -5.85236
thorax 0.0450757 -0.256659 -6.45471
lowerneck -6.79245 1.16728 5.8262
upperneck 1.22029 0.961614 3.35922
head 1.54058 0.589769 0.101155
lclavicle -1.21598e-14 -1.25697e-16 1.08307e-32
lhumerus -58.2672 -45.1467 114.873
lradius 55.0432 -0 0
lwrist 24.9695 0 0
lhand 37.231 24.3804 -1.66584e-06
lfingers 7.12502 -0 0
lthumb 60.0628 38.0946 -2.22963e-06
rclavicle -1.21598e-14 -1.25697e-16 1.08307e-32
rhumerus 3.74061 -24.7711 -0.176609
rradius 27.963 -0 0
rwrist -11.1326 0 0
rhand -31.4415 -44.4464 3.38017e-05
rfingers 7.12502 -0 0
rthumb -4.70951 -74.3739 3.23159e-05
990
root 1.12429 15.1575 32.4766 5.26044 -4.6144 4.07783
lfemur 8.71753 1.67198 5.18776
ltibia 1.72597e-14 -0 0
lfoot -30.1156 -11.64 1.55593e-06
ltoes -33.9345 0 0
rfemur -32.7558 -15.592 -6.23912
rtibia 50.6126 -0 0
rfoot -22.6977 4.91619 -1.13107e-05
rtoes -42.2808 0 0
lowerback -1.48295 -0.355766 0.663694
upperback -0.70905 -0.478188 -5.85215
thorax 0.046248 -0.254662 -6.45189
lowerneck -6.79998 1.16422 5.82969
upperneck 1.22722 0.956241 3.36256
head 1.54412 0.587505 0.101477
lclavicle -1.1972e-14 -4.86304e-16 4.11054e-32
lhumerus -58.2754 -45.1696 114.885
lradius 55.053 -0 0
lwrist 24.9719 0 0
lhand 37.2284 24.3845 -6.32228e-06
lfingers 7.12502 -0 0
lthumb 60.0606 38.101 -8.46204e-06
rclavicle -1.1972e-14 -4.86304e-16 4.11054e-32
rhumerus 3.72663 -24.7559 -0.172537
rradius 27.959 -0 0
rwrist -11.1254 0 0
rhand -31.4313 -44.4257 0.000128287
rfingers 7.12502 -0 0
rthumb -4.69963 -74.3534 0.000122648
991
root 1.12486 15.1577 32.4749 5.24957 -4.5852 4.06588
lfemur 8.70782 1.6419 5.20025
ltibia 1.51192e-14 -0 0
lfoot -30.1152 -11.6221 3.27836e-06
ltoes -33.945 0 0
rfemur -32.7258 -15.598 -6.23297
rtibia 50.5973 -0 0
rfoot -22.6954 4.8963 -2.38318e-05
rtoes -42.3069 0 0
lowerback -1.47756 -0.35143 0.656745
upperback -0.705036 -0.472183 -5.85181
thorax 0.0481038 -0.251501 -6.44742
lowerneck -6.81189 1.15939 5.83521
upperneck 1.23817 0.947734 3.36783
head 1.54973 0.583921 0.101987
lclavicle -1.16747e-14 -1.05709e-15 8.66096e-32
lhumerus -58.2885 -45.206 114.903
lradius 55.0686 -0 0
lwrist 24.9757 0 0
lhand 37.2244 24.3909 -1.33211e-05
lfingers 7.12502 -0 0
lthumb 60.0572 38.1111 -1.78296e-05
rclavicle -1.16747e-14 -1.05709e-15 8.66096e-32
rhumerus 3.70451 -24.7317 -0.166101
rradius 27.9527 -0 0
rwrist -11.114 0 0
rhand -31.4151 -44.393 0.000270302
rfingers 7.12502 -0 0
rthumb -4.684 -74.321 0.000258421
